<svg width="37" height="40" viewBox="0 0 37 40" fill="none" xmlns="http://www.w3.org/2000/svg">
<mask id="mask0_2_252" style="mask-type:luminance" maskUnits="userSpaceOnUse" x="0" y="0" width="37" height="40">
<path d="M37 0H0V40H37V0Z" fill="white"/>
</mask>
<g mask="url(#mask0_2_252)">
<path d="M36.7308 37.7978H28.3264V34.7715H33.9293C34.3029 25.3634 28.0567 23.8811 27.9944 23.8606L25.2759 23.2635L30.3393 18.3021C32.3107 16.6346 31.3976 15.0289 31.0864 14.5759C28.6584 11.4674 26.0645 8.6676 23.4498 6.32071C23.1593 6.07367 22.8895 5.80604 22.599 5.51783C21.3747 4.36497 20.1088 3.15036 18.7185 3.02684C17.2036 2.88273 15.6057 4.36497 14.2361 5.68252C13.9456 5.95015 13.6758 6.21778 13.4061 6.44423C10.8329 8.77053 8.30118 11.5085 5.87325 14.6171C5.87325 14.6171 5.27146 15.5229 5.45822 16.5317C5.60348 17.314 5.74874 17.8081 6.32979 18.3021L11.912 23.2018L9.00673 23.84C8.75772 23.9017 2.69827 25.4663 3.07179 34.7509H8.67471V37.7772H0.270335L0.125074 36.439C-0.767242 27.5662 3.17555 23.6135 5.894 21.9872L4.31689 20.5873C2.90578 19.3932 2.63601 17.9316 2.47 17.0669C2.03422 14.7612 3.30006 12.9702 3.44532 12.7849C5.99776 9.51165 8.65396 6.62951 11.3517 4.20028C11.6007 3.99441 11.8497 3.74737 12.1195 3.50033C13.7796 1.91515 16.0623 -0.246449 18.9882 0.0211784C21.4369 0.247632 23.2423 1.95633 24.6949 3.33564C24.9647 3.58268 25.2344 3.8503 25.4835 4.07676C28.2434 6.54717 30.9411 9.47048 33.5143 12.7643C34.5934 14.226 35.7347 17.7051 32.373 20.5255L30.9619 21.9254C33.7011 23.5312 37.7684 27.4426 36.8553 36.4596L36.7308 37.7978Z" fill="black" fill-opacity="0.8"/>
<path d="M31.4801 16.5933C24.9018 13.5259 18.6349 13.8552 18.5934 13.8552C18.3444 13.8552 12.0981 13.5259 5.51987 16.5933L4.21252 13.8552C11.5171 10.4378 18.3029 10.829 18.5726 10.8496C18.6764 10.8496 25.4621 10.4584 32.7459 13.8552L31.4801 16.5933Z" fill="black" fill-opacity="0.8"/>
<path d="M28.7617 40.0005H8.23834V29.4807C8.23834 27.5661 9.81546 26.0015 11.7454 26.0015H25.2339C27.1638 26.0015 28.7409 27.5661 28.7409 29.4807V40.0005H28.7617ZM11.2889 36.9948H25.7112V29.5013C25.7112 29.2542 25.5037 29.0278 25.2546 29.0278H11.7661C11.5171 29.0278 11.2889 29.2336 11.2889 29.5013V36.9948Z" fill="#0071F9"/>
<path d="M18.4896 21.6781C14.0488 21.6781 10.4173 18.1989 10.4173 13.9375H13.4677C13.4677 16.5314 15.7297 18.6518 18.4896 18.6518C21.2496 18.6518 23.5115 16.5314 23.5115 13.9375H26.562C26.562 18.1989 22.9512 21.6781 18.4896 21.6781Z" fill="black" fill-opacity="0.8"/>
</g>
</svg>
